<?xml version="1.0" encoding="UTF-8"?>
<svg width="20px" height="19px" viewBox="0 0 20 19" version="1.1" xmlns="http://www.w3.org/2000/svg" xmlns:xlink="http://www.w3.org/1999/xlink">
    <!-- Generator: Sketch 41 (35326) - http://www.bohemiancoding.com/sketch -->
    <title>chakan-normal</title>
    <desc>Created with Sketch.</desc>
    <defs></defs>
    <g id="Page-1" stroke="none" stroke-width="1" fill="none" fill-rule="evenodd">
        <g id="单机报告-copy-2" transform="translate(-860.000000, -382.000000)">
            <g id="Group-3" transform="translate(430.000000, 126.000000)">
                <g id="Group-2" transform="translate(11.000000, 145.000000)">
                    <g id="chakan-normal" transform="translate(418.991374, 111.000000)">
                        <path d="M4.71044887,0 L15.2895511,0 C18.4241,0 19.9913744,1.56727441 19.9913744,4.70182324 L19.9913744,13.5177418 C19.9913744,16.6522906 18.4241,18.219565 15.2895511,18.219565 L4.71044887,18.219565 C1.57590004,18.219565 0.00862563167,16.6522906 0.00862563167,13.5177418 L0.00862563167,4.70182324 C0.00862563167,1.56727441 1.57590004,0 4.71044887,0 L4.71044887,0 Z" id="Shape" fill="#005BB1"></path>
                        <path d="M15.6010069,15 C15.4949182,15.0000143 15.3931366,14.9580376 15.3179024,14.8832422 L13.1122469,12.6776398 C12.9607092,12.520745 12.9628764,12.2713528 13.1171178,12.117115 C13.2713593,11.9628773 13.5207575,11.9607101 13.6776561,12.1122442 L15.8833116,14.3178467 C15.9972999,14.4321886 16.0313383,14.6038614 15.9696002,14.7530437 C15.907862,14.9022261 15.7624625,14.9996433 15.6010069,15 L15.6010069,15 Z" id="Shape" fill="#EDEDED"></path>
                        <path d="M9.5,14 C6.46693333,14 4,11.5330667 4,8.5 C4,5.46693333 6.46693333,3 9.5,3 C12.5330667,3 15,5.46693333 15,8.5 C15,11.5330667 12.5330667,14 9.5,14 Z M6.4,9 C6.1790861,9 6,8.8209139 6,8.6 C6,6.6152 7.6152,5 9.6,5 C9.8209139,5 10,5.1790861 10,5.4 C10,5.6209139 9.8209139,5.8 9.6,5.8 C8.056,5.8 6.8,7.056 6.8,8.6 C6.8,8.8209139 6.6209139,9 6.4,9 L6.4,9 Z" id="Combined-Shape" fill="#EDEDED"></path>
                    </g>
                </g>
            </g>
        </g>
    </g>
</svg>