<?xml version="1.0" encoding="UTF-8"?>
<svg width="12px" height="12px" viewBox="0 0 12 12" version="1.1" xmlns="http://www.w3.org/2000/svg" xmlns:xlink="http://www.w3.org/1999/xlink">
    <!-- Generator: Sketch 41 (35326) - http://www.bohemiancoding.com/sketch -->
    <title>download</title>
    <desc>Created with Sketch.</desc>
    <defs></defs>
    <g id="Page-1" stroke="none" stroke-width="1" fill="none" fill-rule="evenodd">
        <g id="单机报告-copy-2" transform="translate(-620.000000, -383.000000)">
            <g id="Group-3" transform="translate(430.000000, 126.000000)">
                <g id="Group-2" transform="translate(11.000000, 145.000000)">
                    <g id="download" transform="translate(179.000000, 112.000000)">
                        <path d="M5.76955504,8.20187354 C5.84262295,8.23138173 5.92131148,8.24824356 6,8.24824356 C6.08009368,8.24824356 6.1587822,8.23138173 6.23044496,8.20187354 C6.30351288,8.17096019 6.36955504,8.12740047 6.42435597,8.07259953 L8.54332553,5.95362998 C8.77798595,5.71896956 8.77798595,5.33957845 8.54332553,5.10491803 C8.30866511,4.87166276 7.929274,4.87166276 7.69601874,5.10491803 L6.6,6.20093677 L6.6,0.604215457 C6.6,0.272599532 6.33161593,0.00421545667 6,0.00421545667 C5.66838407,0.00421545667 5.4,0.272599532 5.4,0.604215457 L5.4,6.20093677 L4.30398126,5.10491803 C4.06932084,4.87166276 3.68992974,4.87166276 3.45667447,5.10491803 C3.33864169,5.22295082 3.28103044,5.37611241 3.28103044,5.529274 C3.28103044,5.6824356 3.33864169,5.83559719 3.45667447,5.95362998 L5.57564403,8.07259953 C5.63185012,8.12740047 5.69648712,8.17096019 5.76955504,8.20187354" id="Shape" fill="#00A2FF"></path>
                        <path d="M11.9957845,7.79859485 L11.9957845,9.5971897 C11.9957845,10.9222482 10.9222482,11.9957845 9.5971897,11.9957845 L2.4028103,11.9957845 C1.07775176,11.9957845 0.00421545667,10.9222482 0.00421545667,9.5971897 L0.00421545667,7.79859485 C0.00421545667,7.46697892 0.272599532,7.19859485 0.604215457,7.19859485 C0.935831382,7.19859485 1.20421546,7.46697892 1.20421546,7.79859485 L1.20421546,9.5971897 C1.20421546,10.2590164 1.74098361,10.7957845 2.4028103,10.7957845 L9.5971897,10.7957845 C10.2590164,10.7957845 10.7957845,10.2590164 10.7957845,9.5971897 L10.7957845,7.79859485 C10.7957845,7.46697892 11.0641686,7.19859485 11.3957845,7.19859485 C11.7274005,7.19859485 11.9957845,7.46697892 11.9957845,7.79859485 Z" id="Shape" fill="#999999"></path>
                    </g>
                </g>
            </g>
        </g>
    </g>
</svg>