<?xml version="1.0" standalone="no"?><!DOCTYPE svg PUBLIC "-//W3C//DTD SVG 1.1//EN" "http://www.w3.org/Graphics/SVG/1.1/DTD/svg11.dtd"><svg t="1568792139539" class="icon" viewBox="0 0 1024 1024" version="1.1" xmlns="http://www.w3.org/2000/svg" p-id="2212" xmlns:xlink="http://www.w3.org/1999/xlink" width="32" height="32"><defs><style type="text/css"></style></defs><path d="M510.544347 388.438846c33.059953 0 61.659315 12.082176 85.800132 36.244482 24.139793 24.168446 36.220946 52.768831 36.249599 85.801155s-12.05864 61.632709-36.249599 85.801155c-24.191982 24.163329-52.792367 36.245506-85.800132 36.245506-33.006741 0-61.606103-12.082176-85.799108-36.245506-24.194028-24.167422-36.276205-52.767807-36.248575-85.801155 0.028653-33.032324 12.109806-61.632709 36.248575-85.801155C448.880939 400.521023 477.481324 388.438846 510.544347 388.438846L510.544347 388.438846zM510.544347 714.547089c55.951313 0 103.942327-20.029172 143.977136-60.087517 40.030715-40.058344 60.058864-88.049359 60.087517-143.974066s-20.001543-103.916744-60.087517-143.974066-88.082104-60.087517-143.977136-60.087517c-55.899124 0-103.888092 20.030196-143.975089 60.087517-40.085974 40.057321-60.116169 88.049359-60.087517 143.974066 0.027629 55.924707 20.056801 103.916744 60.087517 143.974066C406.59895 694.516894 454.588941 714.547089 510.544347 714.547089L510.544347 714.547089zM510.544347 205.366298c100.43341 0 191.331653 27.976168 272.694729 83.929528 81.364099 55.952336 139.854235 129.694851 175.466314 221.231637-35.612079 91.536786-94.102215 165.279301-175.466314 221.231637s-172.262342 83.924411-272.694729 83.924411c-100.43034 0-191.329607-27.971052-272.692682-83.924411-81.369216-55.95336-139.854235-129.694851-175.466314-221.231637 35.612079-91.537809 94.097098-165.279301 175.466314-221.231637C319.21474 233.342466 410.114007 205.366298 510.544347 205.366298L510.544347 205.366298zM510.544347 205.366298" p-id="2213" fill="#ffffff"></path></svg>