<?xml version="1.0" standalone="no"?><!DOCTYPE svg PUBLIC "-//W3C//DTD SVG 1.1//EN" "http://www.w3.org/Graphics/SVG/1.1/DTD/svg11.dtd"><svg t="1565237259436" class="icon" viewBox="0 0 1024 1024" version="1.1" xmlns="http://www.w3.org/2000/svg" p-id="1978" xmlns:xlink="http://www.w3.org/1999/xlink" width="32" height="32"><defs><style type="text/css"></style></defs><path d="M270.4 476.48a32 32 0 1 1-28.8-56.96l256-128a32 32 0 0 1 28.8 0l256 128a32 32 0 0 1-28.8 56.96L512 355.84z m0 288a32 32 0 0 1-28.8-56.96l256-128a32 32 0 0 1 28.8 0l256 128a32 32 0 0 1-28.8 56.96L512 643.84z" p-id="1979" fill="#ffffff"></path></svg>