<?xml version="1.0" standalone="no"?><!DOCTYPE svg PUBLIC "-//W3C//DTD SVG 1.1//EN" "http://www.w3.org/Graphics/SVG/1.1/DTD/svg11.dtd"><svg t="1569396979649" class="icon" viewBox="0 0 1365 1024" version="1.1" xmlns="http://www.w3.org/2000/svg" p-id="2711" xmlns:xlink="http://www.w3.org/1999/xlink" width="42.65625" height="32"><defs><style type="text/css"></style></defs><path d="M1140.982158 0C1171.511117 0 1196.259731 24.748613 1196.259731 55.277574L1196.259731 481.802069C1196.259731 512.331031 1171.511117 537.079644 1140.982158 537.079644 1110.453196 537.079644 1085.704583 512.331031 1085.704583 481.802069L1085.704583 55.277574 1140.982158 110.555148 707.290659 110.555148C676.761697 110.555148 652.013084 85.806535 652.013084 55.277574 652.013084 24.748613 676.761697 0 707.290659 0L1140.982158 0ZM223.896216 1024.028434C193.367257 1024.028434 168.618642 999.279821 168.618642 968.75086L168.618642 542.226364C168.618642 511.697403 193.367257 486.94879 223.896216 486.94879 254.425178 486.94879 279.17379 511.697403 279.17379 542.226364L279.17379 968.75086 223.896216 913.473286 657.587715 913.473286C688.116677 913.473286 712.865289 938.221898 712.865289 968.75086 712.865289 999.279821 688.116677 1024.028434 657.587715 1024.028434L223.896216 1024.028434Z" p-id="2712" fill="#ffffff"></path></svg>