<?xml version="1.0" standalone="no"?><!DOCTYPE svg PUBLIC "-//W3C//DTD SVG 1.1//EN" "http://www.w3.org/Graphics/SVG/1.1/DTD/svg11.dtd"><svg t="1569397001921" class="icon" viewBox="0 0 1024 1024" version="1.1" xmlns="http://www.w3.org/2000/svg" p-id="3141" xmlns:xlink="http://www.w3.org/1999/xlink" width="32" height="32"><defs><style type="text/css"></style></defs><path d="M449.92 543.36C449.92 520.96 431.36 512 410.24 512L97.92 512c-17.92 0-32 14.08-32 32 0 17.92 14.08 32 32 32l242.56 0-267.52 267.52c-12.16 12.16-12.16 31.36 0 43.52 12.16 12.16 31.36 12.16 43.52 0l269.44-269.44 0 246.4c0 17.92 14.08 32 32 32 17.92 0 32-14.08 32-32l0-320M865.92 384 622.72 384l267.52-267.52c12.16-12.16 12.16-31.36 0-43.52-12.16-12.16-31.36-12.16-43.52 0L577.92 342.4 577.92 96C577.92 78.08 563.2 64 545.92 64c-17.92 0-32 14.08-32 32l0 320c0 0.64 0.64 1.28 0.64 1.92 0 8.32 2.56 16.64 8.96 22.4C531.2 448.64 542.72 451.2 552.96 448l312.32 0c17.92 0 32-14.08 32-32C897.92 398.08 883.2 384 865.92 384z" p-id="3142" fill="#ffffff"></path></svg>