<?xml version="1.0" standalone="no"?><!DOCTYPE svg PUBLIC "-//W3C//DTD SVG 1.1//EN" "http://www.w3.org/Graphics/SVG/1.1/DTD/svg11.dtd"><svg t="1565236134865" class="icon" viewBox="0 0 1024 1024" version="1.1" xmlns="http://www.w3.org/2000/svg" p-id="1107" width="32" height="32" xmlns:xlink="http://www.w3.org/1999/xlink"><defs><style type="text/css"></style></defs><path d="M753.6 611.52a32 32 0 1 1 28.8 56.96l-256 128a32 32 0 0 1-28.8 0l-256-128a32 32 0 0 1 28.8-56.96L512 732.16z m0-288a32 32 0 1 1 28.8 56.96l-256 128a32 32 0 0 1-28.8 0l-256-128a32 32 0 1 1 28.8-56.96L512 444.16z" p-id="1108" data-spm-anchor-id="a313x.7781069.0.i1" fill="#ffffff" class="selected"></path></svg>