<?xml version="1.0" encoding="UTF-8"?>
<svg width="41px" height="44px" viewBox="0 0 41 44" version="1.1" xmlns="http://www.w3.org/2000/svg" xmlns:xlink="http://www.w3.org/1999/xlink">
    <!-- Generator: Sketch 41 (35326) - http://www.bohemiancoding.com/sketch -->
    <title>tiaozhuan-3</title>
    <desc>Created with Sketch.</desc>
    <defs></defs>
    <g id="Page-1" stroke="none" stroke-width="1" fill="none" fill-rule="evenodd">
        <g id="Artboard-4" transform="translate(-1222.000000, -200.000000)" fill="#FFFFFF">
            <g id="tiaozhuan-3" transform="translate(1222.500000, 200.821429)">
                <path d="M34.6202808,39.6305365 L6.57777273,39.6305365 C5.59481214,39.6305365 3.23504487,38.6541952 3.23504487,37.6712347 L3.23504487,5.50161605 C3.23504487,4.52196513 4.76409466,3.03263092 5.75036483,3.03263088 L13.0944372,3.03263088 L13.0944372,0.030795084 L6.57777273,0.030795084 C2.97358395,0.030795084 0.0247022689,1.90073689 0.0247022689,5.50492567 L0.0247022689,37.6712347 C0.0247022689,41.2754234 2.97358399,42.8474984 6.57777273,42.8474984 L33.0746829,42.8474984 C36.6788716,42.8474984 39.6277533,42.221978 39.6277533,38.6210989 L39.6277533,31.1214738 L36.1658787,31.1214738 L36.1658787,38.6210989 C36.1658787,39.6040595 35.6032414,39.6305365 34.6202808,39.6305365 Z" id="Shape"></path>
                <path d="M36.6788716,0.202895924 L23.9235516,0.202895924 C22.6162472,0.202895924 21.9609401,0.368377521 21.9609401,1.75842277 C21.9609401,3.1451584 22.6162472,3.63498387 23.9235516,3.63498382 L34.0510242,3.63498382 L18.3402032,19.9481577 C17.3572426,20.9278087 17.3572426,21.3084163 18.3402032,22.2913768 C19.3198542,23.2743374 19.968542,23.2743374 20.5708949,22.7613445 L36.6821813,5.86236588 L36.6821813,20.6365611 C36.6821813,21.9471752 36.7086583,23.2544797 38.3469259,23.2544796 C39.9851935,23.2544796 39.9620261,22.2748287 39.9620261,20.6365611 L39.9620261,2.58914025 C39.3034095,1.2818358 37.9894857,0.202895924 36.6788716,0.202895924 Z" id="Shape"></path>
            </g>
        </g>
    </g>
</svg>