<?xml version="1.0" standalone="no"?><!DOCTYPE svg PUBLIC "-//W3C//DTD SVG 1.1//EN" "http://www.w3.org/Graphics/SVG/1.1/DTD/svg11.dtd"><svg t="1564910404604" class="icon" viewBox="0 0 1024 1024" version="1.1" xmlns="http://www.w3.org/2000/svg" p-id="2319" xmlns:xlink="http://www.w3.org/1999/xlink" width="16" height="16"><defs><style type="text/css"></style></defs><path d="M515 68.5c-243.5 0-441.6 198.1-441.6 441.6S271.5 951.7 515 951.7s441.6-198.1 441.6-441.6S758.6 68.5 515 68.5z m0 809.6c-202.9 0-368-165.1-368-368s165.1-368 368-368 368 165.1 368 368-165 368-368 368z m171.1-259.8L533.4 530V289.3c0-20.3-16.5-36.8-36.8-36.8-20.3 0-36.8 16.5-36.8 36.8v257.6c0 13.7 17 25.1 28 31.4 3.1 4.6 11.4 8.8 16.6 11.7l151.8 92c17.6 10.2 36.7 4.1 46.8-13.5 10.2-17.5 0.7-40-16.9-50.2z" fill="#ffffff" p-id="2320"></path></svg>